<svg xmlns="http://www.w3.org/2000/svg" width="1200" height="630" viewBox="0 0 1200 630">
  <defs>
    <linearGradient id="bg" x1="0" y1="0" x2="1" y2="1">
      <stop offset="0%" stop-color="#0a0a12"/>
      <stop offset="100%" stop-color="#12121c"/>
    </linearGradient>
    <linearGradient id="brand" x1="0" y1="0" x2="1" y2="1">
      <stop offset="0%" stop-color="#8cb4ff"/>
      <stop offset="100%" stop-color="#a78bfa"/>
    </linearGradient>
    <linearGradient id="brandGlow" x1="0" y1="0" x2="1" y2="1">
      <stop offset="0%" stop-color="#8cb4ff" stop-opacity="0.3"/>
      <stop offset="100%" stop-color="#a78bfa" stop-opacity="0.1"/>
    </linearGradient>
    <radialGradient id="glow" cx="50%" cy="40%" r="50%">
      <stop offset="0%" stop-color="#8cb4ff" stop-opacity="0.08"/>
      <stop offset="100%" stop-color="#8cb4ff" stop-opacity="0"/>
    </radialGradient>
    <filter id="blur" x="-50%" y="-50%" width="200%" height="200%">
      <feGaussianBlur stdDeviation="20"/>
    </filter>
  </defs>
  <!-- Background -->
  <rect width="1200" height="630" fill="url(#bg)"/>
  <rect width="1200" height="630" fill="url(#glow)"/>
  
  <!-- Subtle grid dots -->
  <g fill="#1e1e30" opacity="0.5">
    <circle cx="100" cy="100" r="1.5"/><circle cx="200" cy="100" r="1.5"/><circle cx="300" cy="100" r="1.5"/>
    <circle cx="400" cy="100" r="1.5"/><circle cx="500" cy="100" r="1.5"/><circle cx="600" cy="100" r="1.5"/>
    <circle cx="700" cy="100" r="1.5"/><circle cx="800" cy="100" r="1.5"/><circle cx="900" cy="100" r="1.5"/>
    <circle cx="1000" cy="100" r="1.5"/><circle cx="1100" cy="100" r="1.5"/>
    <circle cx="100" cy="200" r="1.5"/><circle cx="200" cy="200" r="1.5"/><circle cx="300" cy="200" r="1.5"/>
    <circle cx="400" cy="200" r="1.5"/><circle cx="500" cy="200" r="1.5"/><circle cx="600" cy="200" r="1.5"/>
    <circle cx="700" cy="200" r="1.5"/><circle cx="800" cy="200" r="1.5"/><circle cx="900" cy="200" r="1.5"/>
    <circle cx="1000" cy="200" r="1.5"/><circle cx="1100" cy="200" r="1.5"/>
    <circle cx="100" cy="300" r="1.5"/><circle cx="200" cy="300" r="1.5"/><circle cx="300" cy="300" r="1.5"/>
    <circle cx="400" cy="300" r="1.5"/><circle cx="500" cy="300" r="1.5"/><circle cx="600" cy="300" r="1.5"/>
    <circle cx="700" cy="300" r="1.5"/><circle cx="800" cy="300" r="1.5"/><circle cx="900" cy="300" r="1.5"/>
    <circle cx="1000" cy="300" r="1.5"/><circle cx="1100" cy="300" r="1.5"/>
    <circle cx="100" cy="400" r="1.5"/><circle cx="200" cy="400" r="1.5"/><circle cx="300" cy="400" r="1.5"/>
    <circle cx="400" cy="400" r="1.5"/><circle cx="500" cy="400" r="1.5"/><circle cx="600" cy="400" r="1.5"/>
    <circle cx="700" cy="400" r="1.5"/><circle cx="800" cy="400" r="1.5"/><circle cx="900" cy="400" r="1.5"/>
    <circle cx="1000" cy="400" r="1.5"/><circle cx="1100" cy="400" r="1.5"/>
    <circle cx="100" cy="500" r="1.5"/><circle cx="200" cy="500" r="1.5"/><circle cx="300" cy="500" r="1.5"/>
    <circle cx="400" cy="500" r="1.5"/><circle cx="500" cy="500" r="1.5"/><circle cx="600" cy="500" r="1.5"/>
    <circle cx="700" cy="500" r="1.5"/><circle cx="800" cy="500" r="1.5"/><circle cx="900" cy="500" r="1.5"/>
    <circle cx="1000" cy="500" r="1.5"/><circle cx="1100" cy="500" r="1.5"/>
  </g>

  <!-- Glow behind brand square -->
  <rect x="520" y="215" width="160" height="160" rx="30" fill="url(#brandGlow)" filter="url(#blur)"/>

  <!-- Brand square with "9" -->
  <rect x="540" y="235" width="120" height="120" rx="24" fill="url(#brand)"/>
  <text x="600" y="322" font-family="system-ui,sans-serif" font-size="56" font-weight="700" fill="#fff" text-anchor="middle">9</text>

  <!-- Title -->
  <text x="600" y="420" font-family="system-ui,sans-serif" font-size="36" font-weight="600" fill="#e8e8f0" text-anchor="middle">Class 9 · Punjab Curriculum</text>

  <!-- Subtitle -->
  <text x="600" y="470" font-family="system-ui,sans-serif" font-size="22" fill="#9e9eb8" text-anchor="middle">Free study lectures — Math, Physics, Chemistry, Urdu, Computer, Biology, English</text>
</svg>
